<svg xmlns="http://www.w3.org/2000/svg" width="28.657" height="28.657" viewBox="0 0 28.657 28.657">
  <path id="Vector" d="M28.657,20.332c0,5.216-3.109,8.325-8.325,8.325H18.627a1.437,1.437,0,0,1-1.433-1.433V18.957a.716.716,0,0,1,.7-.716l2.522-.043a.457.457,0,0,0,.416-.358l.5-2.737a.433.433,0,0,0-.43-.5l-3.052.043a.728.728,0,0,1-.731-.7l-.057-3.511A.431.431,0,0,1,17.5,10l3.439-.057a.422.422,0,0,0,.43-.43l-.057-3.439a.422.422,0,0,0-.43-.43L17.008,5.7a4.293,4.293,0,0,0-4.227,4.37l.072,3.94a.709.709,0,0,1-.7.731l-1.719.029a.422.422,0,0,0-.43.43l.043,2.722a.422.422,0,0,0,.43.43l1.719-.029a.728.728,0,0,1,.731.7l.129,8.167a1.434,1.434,0,0,1-1.433,1.462h-3.3C3.109,28.657,0,25.548,0,20.318V8.325C0,3.109,3.109,0,8.325,0H20.332c5.216,0,8.325,3.109,8.325,8.325V20.332Z" fill="#fff"/>
</svg>
