<svg xmlns="http://www.w3.org/2000/svg" width="28.657" height="28.657" viewBox="0 0 28.657 28.657">
  <path id="Icon_simple-instagram" data-name="Icon simple-instagram" d="M14.329,0C10.436,0,9.95.018,8.422.086A10.566,10.566,0,0,0,4.943.752,7.017,7.017,0,0,0,2.4,2.4,6.991,6.991,0,0,0,.752,4.943,10.535,10.535,0,0,0,.086,8.422C.014,9.95,0,10.436,0,14.329s.018,4.379.086,5.907a10.572,10.572,0,0,0,.666,3.478A7.027,7.027,0,0,0,2.4,26.252a7.007,7.007,0,0,0,2.539,1.653,10.579,10.579,0,0,0,3.478.666c1.528.072,2.014.086,5.907.086s4.379-.018,5.907-.086a10.6,10.6,0,0,0,3.478-.666,7.323,7.323,0,0,0,4.191-4.191,10.572,10.572,0,0,0,.666-3.478c.072-1.528.086-2.014.086-5.907s-.018-4.379-.086-5.907a10.6,10.6,0,0,0-.666-3.478A7.032,7.032,0,0,0,26.252,2.4,6.981,6.981,0,0,0,23.714.752,10.541,10.541,0,0,0,20.236.086C18.707.014,18.221,0,14.329,0Zm0,2.579c3.825,0,4.281.019,5.791.085a7.894,7.894,0,0,1,2.659.5A4.715,4.715,0,0,1,25.5,5.878a7.911,7.911,0,0,1,.493,2.659c.068,1.512.084,1.965.084,5.791s-.018,4.281-.088,5.791a8.064,8.064,0,0,1-.5,2.659,4.55,4.55,0,0,1-1.073,1.65,4.47,4.47,0,0,1-1.648,1.07,7.969,7.969,0,0,1-2.669.493c-1.521.068-1.969.084-5.8.084s-4.282-.018-5.8-.088a8.125,8.125,0,0,1-2.67-.5,4.437,4.437,0,0,1-1.647-1.073A4.351,4.351,0,0,1,3.1,22.763a8.132,8.132,0,0,1-.5-2.669c-.054-1.5-.073-1.969-.073-5.784s.019-4.282.073-5.8a8.122,8.122,0,0,1,.5-2.668A4.247,4.247,0,0,1,4.174,4.19,4.238,4.238,0,0,1,5.821,3.118a7.931,7.931,0,0,1,2.652-.5c1.522-.054,1.97-.072,5.8-.072l.054.036Zm0,4.392a7.358,7.358,0,1,0,7.358,7.358A7.357,7.357,0,0,0,14.329,6.971Zm0,12.134A4.776,4.776,0,1,1,19.1,14.329,4.775,4.775,0,0,1,14.329,19.1ZM23.7,6.681a1.719,1.719,0,1,1-1.719-1.718A1.721,1.721,0,0,1,23.7,6.681Z" fill="#fff"/>
</svg>
