<svg xmlns="http://www.w3.org/2000/svg" width="37.52" height="49.658" viewBox="0 0 37.52 49.658">
  <path id="Path_1" data-name="Path 1" d="M18.888,7.2h7.86V26.5l.148-.147c.741-.737,1.483-1.621,2.224-2.358,0-.147.148-.147.3-.147h8.75V44.775H42.32v6.042H38.167v6.041h-7.86V50.817H10.435V43.891c0-.147,0-.147.148-.295.89-1.031,1.78-2.063,2.818-3.094l.148-.147H4.8V33.871H15.477a2.539,2.539,0,0,0,1.038-.147,2.1,2.1,0,0,0,1.335-1.179c0-.147,0-.147.148-.295a6.007,6.007,0,0,0,.148-1.621V7.642C18.888,7.347,18.888,7.347,18.888,7.2ZM30.307,31.661h0c-3.856,4.273-7.712,8.547-11.419,12.967H30.307Z" transform="translate(-4.8 -7.2)" fill="#fff"/>
</svg>
