<?xml version="1.0" encoding="utf-8"?>
<!-- Generator: Adobe Illustrator 26.0.1, SVG Export Plug-In . SVG Version: 6.00 Build 0)  -->
<svg version="1.1" id="Layer_1" xmlns="http://www.w3.org/2000/svg" xmlns:xlink="http://www.w3.org/1999/xlink" x="0px" y="0px"
	 viewBox="0 0 807.3 394" style="enable-background:new 0 0 807.3 394;" xml:space="preserve">
<style type="text/css">
	.st0{fill:#FFFFFF;}
</style>
<g>
	<path class="st0" d="M7.5,7.9c14.8,0.6,29.1-1.7,43.2,2.5c8.7,2.6,15,8.3,19.9,16.6c6.1-8.3,13.7-13.9,23-16.7
		c17.5-5.3,35.2-5.6,52.5,0.5c20.4,7.1,32,23.2,32.4,45.8c0.5,31.5,0.8,63,0,94.5c-1.1,42.8-29.1,72.3-71.7,77.1
		c-19.2,2.2-37.9,0.6-55.9-6.9C19,207.9,3.4,179.8,6,145.2c2.9-38.9,33.4-65,70.5-67.5c6.3-0.4,12.6-0.2,18.9,0.2
		c1.2,0.1,3.1,2,3.2,3.1c0.2,12.5,0.1,24.9,0.1,37.6c-5.1,0.5-9.9,0.6-14.6,1.4c-17.7,3-29.5,16.5-29,32.8
		c0.6,17.1,12.5,29.8,30.6,31.8c9,1,18,1,26.5-2.9c12.2-5.5,19.2-15,19.1-28.5c-0.1-30-0.6-60-1.1-90c-0.1-8.6-5.6-14.6-14-16.4
		c-6.6-1.4-13-1-18.8,2.6c-5,3.1-7.4,8-7.1,14c0.2,3.5-1.2,4.6-4.6,4.6c-12.2-0.2-24.3-0.2-36.5,0c-3.3,0-4.2-1.2-4.3-4.4
		C44.9,53.5,40.4,49.1,30.4,49c-6.3,0-12.7,0.1-19-0.1c-1.3-0.1-3.7-1.6-3.7-2.5C7.5,33.8,7.5,21.1,7.5,7.9z"/>
	<path class="st0" d="M501.6,118.2c0-12.2-0.1-24.7,0.1-37.1c0-1.1,1.7-2.9,2.8-3.1c27.6-3.9,62.7,5.5,80.6,35.7
		c19.1,32.2,14.6,94.8-45.9,111.2c-26.7,7.2-53.3,6.1-78.2-7.2c-24-12.8-36.9-33.9-38.1-60.6c-1.4-29.1-1.2-58.3-0.4-87.5
		c0.8-28.4,19.9-49.3,49.2-55.6c7.3-1.6,14.8-2.3,22.3-2.4c27-0.3,54-0.1,81-0.1c1,0,2,0.2,3.4,0.3c0,14.1,0,28.2,0,43
		c-2.2,0-4.3,0-6.5,0c-25.8,0-51.7,0-77.5,0c-3.2,0-6.4,0-9.4,0.7c-10.2,2.4-14.8,9-14.9,21.2c-0.1,18.5,0,37-0.1,55.5
		c0,5.8-0.1,11.7-0.3,17.5c-0.8,19.5,11.6,33.9,31.1,34.9c7.8,0.4,16.1-0.3,23.6-2.6c14.5-4.5,21.8-16.7,21.2-31.9
		c-0.6-13.2-10.3-25.4-23.8-28.9C515.4,119.6,508.9,119.2,501.6,118.2z"/>
	<path class="st0" d="M691.6,224c-3.9,0-7.2,0-10.4,0c-11,0-22-0.1-33,0.1c-3.1,0-4.7-0.9-5.8-4c-8.2-24-13.2-48.4-12.9-73.9
		c0.2-17.8,0-35.7,0-53.5c0-53.1,36.4-88.1,89.7-86.1c26.3,1,48.7,10.1,65.3,31.3c11.5,14.7,16.8,31.8,16.9,50.2
		c0.2,25.7,0.1,51.3-0.8,77c-0.6,19.3-5.8,37.8-12.4,55.8c-0.5,1.3-2.1,2.9-3.3,2.9c-15,0.2-29.9,0.1-45.4,0.1
		c2.2-7.5,4.2-14.5,6.1-21.5c4.6-17.1,7-34.6,7.1-52.3c0.1-19.5,0-39,0-58.5c0-15.9-5.8-28.8-20.6-36c-21.6-10.4-53.4,0.1-54.1,34.3
		c-0.5,25.1-0.1,50.3,0.8,75.5c0.6,17.9,5.2,35.2,10.8,52.1C690.3,219.4,690.8,221.3,691.6,224z"/>
	<path class="st0" d="M387.6,146.1c-0.5,27.2-9.4,49.1-30.3,65.1c-20.4,15.7-44.1,19.6-69,17.3c-20.8-1.9-39.4-9.2-54.5-24.2
		c-15.3-15.2-22-33.7-21.7-55.1c0.2-10.3,0.1-10.3,10.4-10.3c11,0,22,0.1,33-0.1c3.8-0.1,5.5,0.9,5.2,5c-0.3,4.3-0.4,8.7,0.4,12.9
		c2.9,15.4,16.3,26.3,33.6,27.7c9.8,0.8,19.3-0.5,27.8-5.9c10.1-6.3,15.3-15.6,15.9-27.3c0.2-4.4,1.7-5.6,6-5.4
		c7.1,0.3,14.3,0.1,21.5,0.1C373,146.1,379.9,146.1,387.6,146.1z"/>
	<path class="st0" d="M263.7,90.8c-16.4,0-32,0-48,0c-1.3-12,0.1-23.3,4.5-34.3c7.9-19.7,22-33.7,41.3-41.8
		c29.1-12.2,58.3-11.9,86.1,3.4c26.3,14.5,38.2,38.3,40,67.7c0.2,3.5-1.2,4.3-4.3,4.2c-13.2-0.2-26.3-0.3-39.5-0.2
		c-3.9,0-5-1.2-5.3-5.1c-1.2-17.1-11.2-29.6-27.7-32.8c-15.7-3.2-30.2-0.5-41,13c-4.1,5.1-6.3,10.9-6.3,17.5
		C263.7,84.9,263.7,87.6,263.7,90.8z"/>
	<path class="st0" d="M191,356.1c-6.1,0-11.5,0-16.8,0c-0.8,0-1.6-0.1-3.1-0.3c0-4.2,0-8.1,0-12c0-10.8,0.1-21.7-0.1-32.5
		c-0.2-8.5-3.5-15.5-11.8-18.6c-7.1-2.7-14.6-2-19.8,3.9c-3,3.4-5.5,8.3-5.8,12.7c-1.5,25-2.2,50,8.5,73.6c0.2,0.4,0.1,0.9,0.3,2.1
		c-5.9,0-11.7,0.2-17.4-0.1c-1.2-0.1-2.7-1.8-3.3-3.1c-5.1-11.7-8.2-23.9-8.4-36.7c-0.2-11.8-0.2-23.7,0-35.5
		c0.2-13.5,5-25,17.2-31.7c13.1-7.3,26.9-7.3,40.1,0c4.2,2.3,7.2,6.6,10.6,9.8c3.1-2.9,6.3-7.2,10.5-9.7c25.8-15.3,56.1,0.9,57,30.6
		c0.6,18.1,2,36.3-2.2,54.3c-1.4,6.3-3.9,12.3-5.8,18.5c-0.8,2.7-2.4,4-5.4,3.8c-5.1-0.2-10.2-0.1-15.4-0.1c2.3-7.7,5-14.9,6.5-22.3
		c3.8-18.4,3.5-37.1,1.9-55.7c-0.8-9.4-8.9-15.8-18.3-15.7c-9.7,0.1-17.7,6.6-18.3,16.3c-0.8,13.3-0.6,26.6-0.8,39.9
		C191,350.2,191,352.9,191,356.1z"/>
	<path class="st0" d="M9.1,304.4c0.1-9.1,4.1-15.3,10.1-20.6c17.5-15.4,49.7-14.7,65.5,1.5c6.2,6.3,8.8,14.1,8.9,22.7
		c0.2,12.8,0.3,25.7,0,38.5C93,370.3,75.8,386.8,52,387.2c-13.9,0.3-26.7-2.7-36.3-13.3c-11-12.2-12.9-26.6-6.8-41.5
		c6-14.9,18.3-22.3,33.9-23.3c6.9-0.4,14,1.7,21,3.1c1.2,0.2,2.8,2.1,2.9,3.3c0.3,5.1,0.1,10.3,0.1,16.1c-7.2-4.2-14.2-6.1-22-4.6
		c-11.6,2.2-19.1,11.2-18.4,22.5c0.7,10.8,9.9,19.1,21.5,19.5c7.6,0.3,14.6-1.1,20.2-6.7c4.1-4.1,6-9.2,6-14.8
		c0-11.8-0.3-23.6-0.3-35.5c0-11.3-3.5-17.1-12.4-20.6c-9.8-3.8-23.3-1.1-29.3,5.8c-0.1,0.1-0.3,0.2-0.3,0.4
		c-1.6,8.9-8.5,6.7-14.3,6.9C14.9,304.4,12.2,304.4,9.1,304.4z"/>
	<path class="st0" d="M687.4,293c-14.2,0-27.8,0-41.4,0c-11.8,0-16.9,4.7-17.2,16.4c-0.3,13.2-0.3,26.3-0.2,39.5
		c0.1,8.5,4.6,14.4,12.3,17.8c7,3.1,14.3,3.1,21.4,0.6c9.3-3.2,14.8-11.6,14.2-20.7c-0.6-9.5-7.7-17.4-17.3-19.5
		c-8-1.7-15.5-0.5-23.4,4.6c0-6.3-0.1-11.6,0.1-16.9c0-0.8,1.4-1.8,2.3-2.2c14.8-7.1,38.9-4.5,51.1,11.8
		c11.5,15.3,9.5,38.4-3.8,51.8c-16.1,16.1-59.6,17.6-72.4-11.1c-2.3-5.2-3.6-11.2-3.7-16.9c-0.5-14.6-0.7-29.3,0-43.9
		c0.7-14.3,9.1-23.6,22.9-27.3c2.6-0.7,5.2-1.5,7.8-1.5c15.6-0.1,31.3-0.1,47.3-0.1C687.4,281,687.4,286.7,687.4,293z"/>
	<path class="st0" d="M774.9,385.1c2.1-10.2,5.1-19.6,5.8-29c1.1-14.6,1.2-29.3,0.5-43.9c-0.5-11.9-10.4-20.2-22.5-20.4
		c-12.2-0.2-22.4,7.4-23,19.6c-1.2,23.5-3,47.3,6.1,70c0.4,0.9,0.6,1.8,1.2,3.7c-6.4,0-12.3,0.2-18.1-0.2c-1.2-0.1-2.6-2.2-3.2-3.7
		c-4.4-11.1-6.4-22.7-6.4-34.6c0-10.7,0-21.3,0.1-32c0.2-24.7,18-41.8,43.2-41.8c24.8,0,43,17.4,42.9,41.6c0,16.5-0.6,32.9-1.8,49.3
		c-0.4,6.2-3.1,12.2-5.1,18.2c-0.4,1.3-2.3,3-3.6,3.1C785.5,385.3,780.2,385.1,774.9,385.1z"/>
	<path class="st0" d="M267.8,341.5c5.9,0,11.5-0.2,17.1,0.2c0.9,0.1,2.6,2.6,2.4,3.8c-2,18.7,19.3,28.7,36.6,20.9
		c8.4-3.8,12.1-11.2,12.3-20.2c0.2-10.8,0.2-21.7,0-32.5c-0.2-10.6-6.2-18.6-15.6-21.5c-10.2-3.2-21.9-0.2-27.4,7.9
		c-2.2,3.3-3.4,7.5-3.9,11.5c-0.4,3.3-1.5,4.3-4.5,4.2c-3.8-0.2-7.7-0.2-11.5,0c-3,0.1-4.1-1.1-4.1-4.1c0-12.1,4.9-21.8,14.3-29.5
		c18.5-15.1,56.5-14,68.8,14.2c2.3,5.3,3.4,11.5,3.7,17.4c0.6,11,0.3,22,0.1,33c-0.2,22.2-16.1,39-38.3,40.2
		c-6.1,0.3-12.4,0.2-18.3-1.1C277.8,381.4,265.8,364.6,267.8,341.5z"/>
	<path class="st0" d="M542.1,274.9c5.3,0,10.6-0.1,15.9,0.1c1,0,2.4,1,2.9,1.9c7.3,12.1,14.4,24.3,21.6,36.4
		c5.2,8.8,10.1,17.6,11.5,27.9c3.2,23.5-12.5,43.4-36.1,45.7c-16.2,1.6-30.9-1.3-42.2-14.3c-8.8-10.1-9.4-22.4-8.7-34.9
		c0-0.8,2-2.1,3.1-2.2c5.3-0.2,10.6-0.1,16.7-0.1c0,4.1-0.1,7.9,0,11.6c0.4,11.4,8.1,20.1,19.1,21.6c13,1.8,23.7-3.8,26.9-14.5
		c2.2-7.3,1.7-14.6-2.2-21.3c-7.2-12.4-14.9-24.4-21.9-36.9c-3.5-6.3-5.7-13.2-8.4-19.9C540.9,275.8,541.5,275.3,542.1,274.9z"/>
	<path class="st0" d="M428.5,280.1c-3.1,5.2-6,10-8.5,14c-4.6-0.9-8.7-2.6-12.8-2.5c-7.7,0.3-12.8,5.5-14.3,13.6
		c-2,10.1-1.4,20.2,1.6,30.1c4.3,14.3,14.6,22.2,28.4,25.2c12.6,2.8,25.6,4.3,38.4,6.2c7.8,1.1,7.8,0.9,7.8,8.5
		c0,3.5-0.1,7-0.1,10.5c0,0.3-0.2,0.6-0.7,1.5c-7.8-1.1-15.9-2-23.8-3.3c-9.9-1.5-19.9-2.6-29.5-5.1c-26.3-6.9-42.4-27.9-43.4-55
		c-0.4-10.9,0.2-21.6,4.6-31.8c9.6-22.3,35.2-22.8,48.7-14.9C426.1,278,427.3,279.2,428.5,280.1z"/>
	<path class="st0" d="M464.2,272.9c17.8-0.1,30.3,7.8,35.8,22.4c5.4,14.4,1.4,31.4-9.8,41.2c-14.6,12.8-40.8,12.7-54.7-0.2
		c-11.1-10.3-14.1-24.4-8.4-39.8c5.5-14.9,16.7-22.1,32.1-23.6C460.9,272.7,462.5,272.9,464.2,272.9z M462.9,327.9
		c11.5,0.1,19.5-7.7,19.3-18.9c-0.1-10.8-7.8-18.3-18.8-18.4c-11.2-0.1-19.3,7.6-19.4,18.4C443.9,320.1,451.7,327.9,462.9,327.9z"/>
	<path class="st0" d="M363.4,96.5c11.8,0,21.4,9.6,21.2,21.2c-0.2,11.7-9.9,21.4-21.4,21.2c-11.8-0.2-20.9-9.5-21-21.4
		C342.2,105.5,351.2,96.6,363.4,96.5z"/>
	<path class="st0" d="M49.5,360.3c-7.1-0.1-12.6-5.7-12.5-12.8c0.1-7,6-12.8,12.8-12.7c6.9,0.2,12.7,6.1,12.6,12.9
		C62.2,354.9,56.5,360.4,49.5,360.3z"/>
	<path class="st0" d="M653.1,360.4c-7.2,0-12.7-5.3-12.8-12.5c-0.1-6.9,5.6-12.9,12.5-13c6.9-0.1,12.7,5.6,12.9,12.6
		C665.8,354.3,660,360.3,653.1,360.4z"/>
	<path class="st0" d="M475.8,309c0,7.1-5.6,12.6-12.7,12.6c-7,0-12.6-5.7-12.6-12.8c0-7.1,5.7-12.7,12.7-12.6
		C470.4,296.4,475.8,301.9,475.8,309z"/>
</g>
</svg>
