<?xml version="1.0" encoding="utf-8"?>
<!-- Generator: Adobe Illustrator 26.0.1, SVG Export Plug-In . SVG Version: 6.00 Build 0)  -->
<svg version="1.1" id="Layer_1" xmlns="http://www.w3.org/2000/svg" xmlns:xlink="http://www.w3.org/1999/xlink" x="0px" y="0px"
	 viewBox="0 0 896 88.4" style="enable-background:new 0 0 896 88.4;" xml:space="preserve">
<style type="text/css">
	.st0{fill:#FFFFFF;}
</style>
<g>
	<path class="st0" d="M658.1,85.7c-14.1-2.2-27.6-3.4-40.6-6.5C600.2,75,588.6,59.7,588,41.9c-0.2-7.1,0.4-14.4,1.9-21.2
		c2.1-9.4,8.5-15.4,18.2-17c9.3-1.6,17.5,0.3,23.9,8.5c7.4-8.1,16.8-10.3,27.2-8.4c14.3,2.7,21.9,12.9,21,28.1
		c-0.7,12-11.3,22.5-24,23.5c-9.6,0.8-18.5-0.8-25.8-8c-5.1-5-7-11.2-7.3-18.1c-0.2-3.9-1.4-7.3-5.5-8.7c-4.7-1.6-9.6,0.9-10.5,6.3
		c-3.7,21.4,4.1,34.5,23.9,37.2c7.7,1,15.5,2.2,23.3,2.9c3,0.3,4,1.4,3.9,4.3C657.9,75.9,658.1,80.3,658.1,85.7z M661.9,29.6
		c0.1-5.9-4-10.1-9.9-10.2c-5.9-0.1-10.4,4-10.6,9.7c-0.2,5.7,4.2,10,10.1,10.1C657.7,39.3,661.8,35.4,661.9,29.6z"/>
	<path class="st0" d="M477.8,83.4c7.7-16.5,6.4-33.3,6.2-50c-0.1-3.4-1.1-7.9-3.3-9.9c-2.4-2.2-7.2-3.3-10.3-2.5
		c-2.9,0.8-5.8,4.4-7,7.4c-1.4,3.7-1,8.1-1.4,12.5c-5.7,0-11.3,0-17.8,0c0-3.1,0.1-6,0-8.9c-0.2-7.1-3.7-11.3-9.7-11.7
		c-6.4-0.5-11,3.2-11.5,10.4c-1.2,16.5-1.3,33,4.5,49c0.3,0.9,0.5,1.9,1,3.7c-5.7,0-10.9,0.2-16.1-0.1c-1-0.1-2.3-1.8-2.7-3
		c-1.6-4.9-3.8-9.9-4-14.9c-0.7-13.6-1.3-27.4-0.3-41c0.8-10.2,7.7-17.4,17.8-20c11.5-2.9,22.2-1.5,30.3,9c7.2-9.3,17-11.5,28-9.6
		c11.1,2,19.4,9.3,20.3,20.5c1.4,16.7,2.5,33.7-2.4,50.2c-2.6,9-2.7,8.9-11.7,8.9C484.7,83.4,481.7,83.4,477.8,83.4z"/>
	<path class="st0" d="M34.5,26c-5.4,0-10.5,0-16.3,0c0.6-7.5-4.7-7.1-9.7-6.8c-3.1,0.2-4.6-0.8-4.4-4.2c0.2-3.6,0-7.2,0-11.3
		c8.7,0.4,17.3-2.2,23.2,6.2C35,2.6,44,1.9,53.4,4.1c8.2,1.9,13.5,8.4,13.7,16.9c0.2,12.2,0.3,24.4,0,36.5
		C66.5,75.3,51,87.2,31.8,85.1c-15-1.7-24.6-8.7-27.4-20.8c-2.4-10.5-0.7-20.5,7.9-27.9c8.6-7.4,18.7-8.9,29.5-5.9
		c1.1,0.3,2.7,1.8,2.8,2.9c0.3,4.4,0.1,8.8,0.1,12.8c-4.8-0.3-8.9-1-12.9-0.7c-6.2,0.5-10.1,5.5-10,11.6c0.1,5.9,4,10.3,10,11.2
		c9.2,1.3,18-1.7,17.1-14.6C48.5,44.9,48.9,36,49,27.1c0.1-4.3-0.3-8.2-5.7-8.8C38.2,17.7,35.9,19.6,34.5,26z"/>
	<path class="st0" d="M369.8,46.2c-4.7-0.4-8.7-1.1-12.5-0.9c-6.2,0.4-10.5,5.3-10.5,11.2c-0.1,6,4,10.7,10.2,11.6
		c9.4,1.4,18-2.7,17.1-14.3c-0.6-7.8-0.1-15.7-0.1-23.5c0-6.5-1.8-9.3-7.1-11.2c-5.7-2-13.5-0.8-16,3.5c-2,3.3-4.3,3.5-7.4,3.4
		c-4-0.1-8,0-12.1,0c-1.2-4.8,1-8.2,3.4-11.3c10.9-14.3,38.3-15.8,50.7-2.9c4.5,4.7,6.7,10.3,6.7,16.8c0,8.3-0.1,16.7,0,25
		c0.5,22.6-16.2,32.9-35.5,31.3c-12.5-1-22.7-6.1-26.7-19c-3.3-10.6-1.9-20.7,6.4-28.7c8.5-8.2,18.9-10,30.1-6.9
		c1.4,0.4,3,2.6,3.2,4.1C370.1,38.5,369.8,42.5,369.8,46.2z"/>
	<path class="st0" d="M211.4,5c0,4.2,0,7.6,0,11.1c0,1.5-0.1,3-0.3,5.2c-8.5,0-16.7,0-25,0c-14.2,0-14.3,0-14.3,14.2
		c0,7.3-0.2,14.7,0.1,22c0.3,7.8,6.4,11.8,15.8,10.9c7.4-0.7,11.9-6,11.1-13.2c-0.9-7.8-9.7-12.2-18.8-9.4c-1.2,0.4-2.4,0.9-4.2,1.5
		c0-3.5,0.3-6.5-0.1-9.4c-0.7-5.2,1.5-7.4,6.5-8.3c12.8-2.4,26.4,3.5,32,14.3c5.6,10.9,3.5,25.3-5.4,33.2
		c-10.3,9.1-22.6,9.9-35.2,6.4C163,80.4,156.1,73,154.4,62c-1.1-7.4-0.5-15-0.6-22.5c-0.1-3.2,0.2-6.4,0-9.5
		c-1.2-14.1,8.3-23,21.9-24.8c1.8-0.2,3.7-0.2,5.5-0.2C191,5,200.8,5,211.4,5z"/>
	<path class="st0" d="M776.8,47.1c0-3.6,0.4-6.8-0.1-9.9c-0.7-4.9,1.5-6.7,6-7.6c16.5-3.5,32.1,6.4,35,22.4
		c2.9,16.4-7.8,30.6-25.3,32.5c-5.1,0.6-10.4,0.5-15.3-0.4c-13.1-2.5-21.4-11.8-22.3-25.3c-0.7-10.5-0.9-21-0.4-31.5
		c0.7-12.9,9-21.2,22.2-22c11.6-0.7,23.3-0.1,35.3-0.1c0,5.3,0,10.3,0,16.1c-4.4,0-8.6,0-12.9,0c-6.3,0-12.7-0.1-19,0.1
		c-4.4,0.1-7.4,2.3-7.4,7c-0.1,9.7-0.2,19.4,0,29.1c0.1,5.2,3.1,8.7,7.9,10.5c5.8,2,13.3,0.4,16.7-3.7c3.1-3.7,3.6-7.8,1.6-12.2
		c-2.7-5.9-10.2-8.5-17.8-6.3C779.7,46,778.5,46.5,776.8,47.1z"/>
	<path class="st0" d="M715.6,84.7c0-4.8-0.1-9.6,0.1-14.3c0-0.9,1.4-2,2.4-2.5c7.9-3.9,10.8-10.2,7.5-18.5c-2-5.1-5.3-9.6-7.9-14.5
		c-4.1-7.8-8.1-15.6-12-23.5C705,9.7,705,7.6,704.5,5c5.6,0,10.7-0.1,15.9,0.1c0.9,0,2.1,0.9,2.6,1.7c5.7,9.9,11.3,20,17,29.9
		c4.8,8.4,6.9,17.4,4.5,26.9C741.1,76.6,730.4,84.6,715.6,84.7z"/>
	<path class="st0" d="M858.8,3.6c0,4.9,0.2,9.6-0.1,14.2c-0.1,1.1-1.3,2.7-2.4,3.1c-6.7,2.7-9.1,8-9.1,14.7
		c-0.1,15.8-0.9,31.7,5.3,47.8c-6,0-11.2,0.2-16.4-0.1c-1-0.1-2.4-1.8-2.7-3c-1.5-5.8-3.5-11.6-3.8-17.5c-0.5-12-0.9-24.1,0.4-35.9
		C831.7,13.2,844,3.8,858.8,3.6z"/>
	<path class="st0" d="M269.3,83.4c1.3-7.7,3.1-14.8,3.7-22.1c0.7-9.1,0.6-18.3,0.5-27.5c-0.1-5.9-2.8-10.5-8.7-12.8
		c-1.1-0.4-2.4-2-2.5-3.1c-0.3-4.6-0.1-9.3-0.1-13.8c12.7-1.9,27,8.9,28.7,22.8c2,17.2,2.4,34.6-2.7,51.6c-1.1,3.6-2.6,5.3-6.6,4.9
		C277.5,83.1,273.4,83.4,269.3,83.4z"/>
	<path class="st0" d="M251.9,83.4c-6.1,0-11.2,0.2-16.3-0.2c-1.1-0.1-2.6-2-2.9-3.3c-1.5-6.5-3.4-12.9-3.8-19.5
		c-0.6-9.6-0.4-19.3-0.1-29c0.5-15.9,13.3-28,29.4-27.7c0,4.8,0.2,9.6-0.1,14.4c-0.1,1.1-1.4,2.5-2.5,3c-6.2,2.6-8.7,7.3-8.5,13.8
		C247.1,50.9,245.3,67.2,251.9,83.4z"/>
	<path class="st0" d="M862.8,3.5c16.7,0.7,28.7,11.8,29.3,27.6c0.5,15.6,1.7,31.3-2.9,46.7c-1.3,4.4-3.3,6.3-8,5.8
		c-3.6-0.4-7.3-0.1-11.1-0.1c-0.1-1-0.4-1.7-0.2-2.3c5.5-15.3,4.1-31.2,4.1-47c0-6.3-2.8-10.7-8.8-13.2c-1.1-0.4-2.3-2-2.3-3.1
		C862.7,13.2,862.8,8.5,862.8,3.5z"/>
	<path class="st0" d="M560.4,54.6c5.9,0,11.5,0,17.6,0c0.3,10.7-3.5,19.1-11.9,24.6c-12.6,8.3-26.1,8.3-39.1,0.9
		c-10.4-5.9-14.2-15.7-13.1-27.9c5.9,0,11.6,0,17.3,0c3.1,13.1,6.1,16.2,14.9,16.2C554.2,68.4,558.3,64.5,560.4,54.6z"/>
	<path class="st0" d="M142.3,54.2c0.3,10.9-3.3,19.2-11.5,24.8c-12.4,8.4-25.7,8.5-38.7,1.5C81.2,74.7,77.1,65,78.1,52.4
		c5.8,0,11.5,0,17.4,0c0.1,0.5,0.4,1.1,0.5,1.8c0.6,9.1,4.4,13.5,12.2,14.2c8.8,0.8,13.5-2.6,16-11.3c0.3-1.1,1.7-2.6,2.7-2.6
		C131.8,54.1,136.8,54.2,142.3,54.2z"/>
	<path class="st0" d="M532.5,34.1c-5.7,0-11.4,0-17.5,0c-1-10.8,3-19.2,11.6-25c11.8-7.9,24.4-8.4,36.9-1.7
		c10.1,5.5,14.5,14.6,14.7,26.4c-6,0-11.8,0-17.5,0c-3.6-11.5-7-14.5-16.1-13.8C537.3,20.6,534.1,24.2,532.5,34.1z"/>
	<path class="st0" d="M141.7,34.3c-5,0-10.1,0.1-15.2-0.1c-0.8,0-2-1.5-2.3-2.5c-2.7-9.2-6.8-12.4-15.6-11.6
		c-7.2,0.6-10.7,4.8-11.7,14c-5.7,0-11.4,0-17.1,0c-2-8.3,2.4-18.6,10.6-24.6c10.9-7.9,27.2-8.6,38.6-1.5
		C138,13.6,143.3,24.3,141.7,34.3z"/>
	<path class="st0" d="M682.3,47.5c5,0,10.1-0.1,15.1,0.1c0.8,0,2.1,1.9,2.3,3c0.4,2.4-0.4,5.3,0.6,7.4c1.4,3.2,3.3,7.5,5.9,8.4
		c5,1.8,5.5,4.7,5.2,9c-0.2,3.1,0,6.2,0,9.3C690.8,84.7,678.3,68.5,682.3,47.5z"/>
	<path class="st0" d="M444.2,63.3c0-5.2-0.1-10.3,0.1-15.5c0-0.8,1.3-1.6,2.1-2.3c0.3-0.3,1-0.1,1.5-0.1
		c14.9-1.1,16.1,0.4,14.1,17.9C456.3,63.3,450.6,63.3,444.2,63.3z"/>
	<path class="st0" d="M133.7,52.1c-4.2-0.1-7.8-3.9-7.7-8.1c0.1-4.3,3.7-7.8,8.1-7.7c4.2,0.1,7.9,3.9,7.8,8.1
		C141.7,48.5,137.9,52.2,133.7,52.1z"/>
	<path class="st0" d="M577.1,43.1c0.1,4.3-3.4,8.1-7.7,8.2c-4.1,0.1-7.6-3.3-7.8-7.5c-0.2-4.7,2.8-8.2,7.3-8.4
		C573.4,35.2,577,38.6,577.1,43.1z"/>
	<path class="st0" d="M786.1,64.5c-4.4,0-8-3.5-7.9-7.9c0.1-4.1,3.5-7.6,7.7-7.7c4.5-0.1,8,3.3,8.1,7.7
		C794.1,61.1,790.7,64.5,786.1,64.5z"/>
	<path class="st0" d="M35.5,48.9c4.5,0.1,7.7,3.5,7.6,8.1c-0.1,4.5-3.6,7.7-8.1,7.5c-4.3-0.2-7.4-3.4-7.4-7.8
		C27.6,52.3,31.1,48.9,35.5,48.9z"/>
	<path class="st0" d="M185.2,64.5c-4.5-0.1-7.7-3.6-7.5-8.1c0.2-4.2,3.5-7.5,7.8-7.5c4.5,0,7.8,3.4,7.7,7.9
		C193.1,61.5,189.8,64.6,185.2,64.5z"/>
	<path class="st0" d="M360.3,49c4.4,0,7.9,3.5,7.9,7.9c0,4.3-3.3,7.6-7.5,7.7c-4.6,0.1-7.9-3-8-7.6C352.5,52.3,355.7,49,360.3,49z"
		/>
	<path class="st0" d="M659.5,29.4c0,4.4-3.7,8-8,7.9c-4.1-0.1-7.6-3.6-7.7-7.8c-0.1-4.4,3.5-8,7.8-8.1
		C656.1,21.4,659.5,24.9,659.5,29.4z"/>
</g>
</svg>
